<svg xmlns="http://www.w3.org/2000/svg" width="5835.745" height="6919.522" viewBox="0 0 5835.745 6919.522">
  <g id="Group_113" data-name="Group 113" transform="translate(478.256 821.221)">
    <path id="wave_6_" data-name="wave (6)" d="M0,76.305l14,10.7c13.948,10.3,42.107,32.3,69.9,26.6,27.949-5.3,56.107-37.3,83.9-48,27.949-10.3,56.107-.3,83.9-16,27.949-16.3,56.107-58.3,83.9-48,27.949,10.7,56.107,74.7,83.9,106.7,27.949,32,56.107,32,83.9,21.3,27.949-10.3-60.512,112.784-32.721,70.484,27.949-42.7-12.081,12.274,15.71,12.274,27.949,0,31.369-31.127,45,.873L493.3,261.974l-56.481,13.818,115.67,8.822c-13.948,0-1.015,1.1-28.806,1.1-27.949,0,91.393-81.406,63.6-81.406H0Z" transform="translate(2585.548 4005.232) rotate(-128)" fill="#ffd692"/>
    <path id="wave_6_2" data-name="wave (6)" d="M321.794,1901.543l118.367,131.549c117.77,126.763,356.039,397.06,579.5,336.86,224.912-55.385,440.133-429.18,661.462-549.018,222.778-115.024,455.925,12.143,675.12-167.334,220.217-186.589,431.17-679.66,661.462-549.018,231.741,135.457,487.936,906.715,727.489,1296.186,240.833,389.515,469.712,397.405,691.041,277.566,222.778-115.024,442.267-369.542,650.109-866.293,208.95-501.479,410.513-1256.957,636.409-1249.17,227.174,7.831,483.369,779.089,607.844,1164.593l128.737,385.651,54.631,1526.737-113.8-3.923-568.148-19.585-681.95-23.508-681.949-23.508-681.949-23.508-681.949-23.508L2422.272,3498.8,1740.323,3475.3l-681.949-23.508L491.5,3432.247l-115.079-3.967Z" transform="translate(2394.264 6664) rotate(-121)" fill="#ffaf65"/>
    <path id="wave_6_3" data-name="wave (6)" d="M321.794,1901.543l118.367,131.549c117.77,126.763,356.039,397.06,579.5,336.86,224.912-55.385,440.133-429.18,661.462-549.018,222.778-115.024,455.925,12.143,675.12-167.334,220.217-186.589,431.17-679.66,661.462-549.018,231.741,135.457,479.106,850.376,989.145,750.835,240.832,389.515,208.056,942.757,429.384,822.918,222.778-115.024,442.268-369.542,650.109-866.293,208.95-501.479,410.513-1256.957,636.409-1249.17,227.174,7.831,483.368,779.089,607.844,1164.593l128.737,385.651,54.631,1526.737-113.8-3.923-568.148-19.585-681.949-23.508-681.949-23.508-681.949-23.508-681.949-23.508L2422.272,3498.8,1740.323,3475.3l-681.949-23.508L491.5,3432.247l-115.079-3.967Z" transform="translate(2403.264 6637) rotate(-121)" fill="#a97e72"/>
  </g>
</svg>
