<svg xmlns="http://www.w3.org/2000/svg" width="467.82" height="353.364" viewBox="0 0 467.82 353.364">
  <g id="Group_107" data-name="Group 107" transform="translate(92.91 72.182)">
    <g id="Polygon_18" data-name="Polygon 18" transform="translate(105.617 195.776) rotate(-121)" fill="#ffd692">
      <path d="M 119.8744201660156 77.5 L 5.125616073608398 77.5 L 62.50000762939453 4.060778617858887 L 119.8744201660156 77.5 Z" stroke="none"/>
      <path d="M 62.50000762939453 8.121574401855469 L 10.251220703125 75 L 114.748779296875 75 L 62.50000762939453 8.121574401855469 M 62.50000762939453 0 L 125.0000076293945 80 L -1.52587890625e-05 80 L 62.50000762939453 0 Z" stroke="none" fill="#ffaf65"/>
    </g>
    <g id="Polygon_19" data-name="Polygon 19" transform="translate(177.573 8.224) rotate(59)" fill="#ffd692">
      <path d="M 119.8743896484375 77.5 L 5.125608444213867 77.5 L 62.5 4.060779094696045 L 119.8743896484375 77.5 Z" stroke="none"/>
      <path d="M 62.5 8.121574401855469 L 10.25122833251953 75 L 114.7487716674805 75 L 62.5 8.121574401855469 M 62.5 0 L 125 80 L 0 80 L 62.5 0 Z" stroke="none" fill="#ffaf65"/>
    </g>
    <g id="Polygon_20" data-name="Polygon 20" transform="translate(239.763 117.37) rotate(-121)" fill="#6e2142">
      <path d="M 119.8744201660156 77.5 L 5.125616073608398 77.5 L 62.50000762939453 4.060778617858887 L 119.8744201660156 77.5 Z" stroke="none"/>
      <path d="M 62.50000762939453 8.121574401855469 L 10.251220703125 75 L 114.748779296875 75 L 62.50000762939453 8.121574401855469 M 62.50000762939453 0 L 125.0000076293945 80 L -1.52587890625e-05 80 L 62.50000762939453 0 Z" stroke="none" fill="#ffaf65"/>
    </g>
    <g id="Polygon_21" data-name="Polygon 21" transform="translate(310.53 -72.182) rotate(59)" fill="#6e2142">
      <path d="M 119.8743896484375 77.5 L 5.125608444213867 77.5 L 62.5 4.060779094696045 L 119.8743896484375 77.5 Z" stroke="none"/>
      <path d="M 62.5 8.121574401855469 L 10.25122833251953 75 L 114.7487716674805 75 L 62.5 8.121574401855469 M 62.5 0 L 125 80 L 0 80 L 62.5 0 Z" stroke="none" fill="#ffaf65"/>
    </g>
    <g id="Polygon_16" data-name="Polygon 16" transform="translate(-28.53 281.182) rotate(-121)" fill="#6e2142">
      <path d="M 119.8743896484375 77.5 L 5.125608444213867 77.5 L 62.5 4.060779094696045 L 119.8743896484375 77.5 Z" stroke="none"/>
      <path d="M 62.5 8.121574401855469 L 10.25122833251953 75 L 114.7487716674805 75 L 62.5 8.121574401855469 M 62.5 0 L 125 80 L 0 80 L 62.5 0 Z" stroke="none" fill="#ffaf65"/>
    </g>
    <g id="Polygon_17" data-name="Polygon 17" transform="translate(43.237 91.63) rotate(59)" fill="#6e2142">
      <path d="M 119.8743896484375 77.5 L 5.125608444213867 77.5 L 62.5 4.060779094696045 L 119.8743896484375 77.5 Z" stroke="none"/>
      <path d="M 62.5 8.121574401855469 L 10.25122833251953 75 L 114.7487716674805 75 L 62.5 8.121574401855469 M 62.5 0 L 125 80 L 0 80 L 62.5 0 Z" stroke="none" fill="#ffaf65"/>
    </g>
  </g>
</svg>
