<svg xmlns="http://www.w3.org/2000/svg" xmlns:xlink="http://www.w3.org/1999/xlink" width="1276.699" height="754.261" viewBox="0 0 1276.699 754.261">
  <defs>
    <clipPath id="clip-path">
      <rect width="1276.316" height="73.931" fill="none"/>
    </clipPath>
    <clipPath id="clip-path-2">
      <rect width="1276.554" height="87.905" fill="none"/>
    </clipPath>
  </defs>
  <g id="Group_115" data-name="Group 115" transform="translate(-3.009 -23)">
    <g id="Repeat_Grid_1" data-name="Repeat Grid 1" transform="translate(3.391 23)" clip-path="url(#clip-path)">
      <g transform="translate(-3.391 -42.644)">
        <g id="Polygon_22" data-name="Polygon 22" transform="translate(97.707 42.644) rotate(90)" fill="#6e2142">
          <path d="M 68.80577850341797 44.81609344482422 L 5.1256103515625 44.81609344482422 L 36.96569442749023 4.060781002044678 L 68.80577850341797 44.81609344482422 Z" stroke="none"/>
          <path d="M 36.96569442749023 8.12158203125 L 10.25122833251953 42.31608963012695 L 63.68014907836914 42.31608963012695 L 36.96569442749023 8.12158203125 M 36.96569442749023 3.814697265625e-06 L 73.93138122558594 47.31608963012695 L -7.62939453125e-06 47.31608963012695 L 36.96569442749023 3.814697265625e-06 Z" stroke="none" fill="#ffaf65"/>
        </g>
        <g id="Polygon_26" data-name="Polygon 26" transform="translate(284.707 42.644) rotate(90)" fill="#6e2142">
          <path d="M 68.80577850341797 44.81609344482422 L 5.1256103515625 44.81609344482422 L 36.96569442749023 4.060781002044678 L 68.80577850341797 44.81609344482422 Z" stroke="none"/>
          <path d="M 36.96569442749023 8.12158203125 L 10.25122833251953 42.31608963012695 L 63.68014907836914 42.31608963012695 L 36.96569442749023 8.12158203125 M 36.96569442749023 3.814697265625e-06 L 73.93138122558594 47.31608963012695 L -7.62939453125e-06 47.31608963012695 L 36.96569442749023 3.814697265625e-06 Z" stroke="none" fill="#ffaf65"/>
        </g>
        <g id="Polygon_24" data-name="Polygon 24" transform="translate(97.391 116.575) rotate(-90)" fill="#ffd692">
          <path d="M 68.80577850341797 44.81609344482422 L 5.125606536865234 44.81609344482422 L 36.96569061279297 4.060781002044678 L 68.80577850341797 44.81609344482422 Z" stroke="none"/>
          <path d="M 36.96569061279297 8.12158203125 L 10.25123596191406 42.31608963012695 L 63.68014526367188 42.31608963012695 L 36.96569061279297 8.12158203125 M 36.96569061279297 3.814697265625e-06 L 73.93137359619141 47.31608963012695 L 7.62939453125e-06 47.31608963012695 L 36.96569061279297 3.814697265625e-06 Z" stroke="none" fill="#ffaf65"/>
        </g>
        <g id="Polygon_25" data-name="Polygon 25" transform="translate(191.707 42.644) rotate(90)" fill="#ffd692">
          <path d="M 68.80577850341797 44.81609344482422 L 5.125606536865234 44.81609344482422 L 36.96569061279297 4.060781002044678 L 68.80577850341797 44.81609344482422 Z" stroke="none"/>
          <path d="M 36.96569061279297 8.12158203125 L 10.25123596191406 42.31608963012695 L 63.68014526367188 42.31608963012695 L 36.96569061279297 8.12158203125 M 36.96569061279297 3.814697265625e-06 L 73.93137359619141 47.31608963012695 L 7.62939453125e-06 47.31608963012695 L 36.96569061279297 3.814697265625e-06 Z" stroke="none" fill="#ffaf65"/>
        </g>
        <g id="Polygon_23" data-name="Polygon 23" transform="translate(3.391 116.575) rotate(-90)" fill="#6e2142">
          <path d="M 68.80577850341797 44.81609344482422 L 5.125606536865234 44.81609344482422 L 36.96569061279297 4.060781002044678 L 68.80577850341797 44.81609344482422 Z" stroke="none"/>
          <path d="M 36.96569061279297 8.12158203125 L 10.25123596191406 42.31608963012695 L 63.68014526367188 42.31608963012695 L 36.96569061279297 8.12158203125 M 36.96569061279297 3.814697265625e-06 L 73.93137359619141 47.31608963012695 L 7.62939453125e-06 47.31608963012695 L 36.96569061279297 3.814697265625e-06 Z" stroke="none" fill="#ffaf65"/>
        </g>
        <g id="Polygon_27" data-name="Polygon 27" transform="translate(190.391 116.575) rotate(-90)" fill="#6e2142">
          <path d="M 68.80577850341797 44.81609344482422 L 5.125606536865234 44.81609344482422 L 36.96569061279297 4.060781002044678 L 68.80577850341797 44.81609344482422 Z" stroke="none"/>
          <path d="M 36.96569061279297 8.12158203125 L 10.25123596191406 42.31608963012695 L 63.68014526367188 42.31608963012695 L 36.96569061279297 8.12158203125 M 36.96569061279297 3.814697265625e-06 L 73.93137359619141 47.31608963012695 L 7.62939453125e-06 47.31608963012695 L 36.96569061279297 3.814697265625e-06 Z" stroke="none" fill="#ffaf65"/>
        </g>
      </g>
      <g transform="translate(278.609 -42.644)">
        <g id="Polygon_22-2" data-name="Polygon 22" transform="translate(97.707 42.644) rotate(90)" fill="#6e2142">
          <path d="M 68.80577850341797 44.81609344482422 L 5.1256103515625 44.81609344482422 L 36.96569442749023 4.060781002044678 L 68.80577850341797 44.81609344482422 Z" stroke="none"/>
          <path d="M 36.96569442749023 8.12158203125 L 10.25122833251953 42.31608963012695 L 63.68014907836914 42.31608963012695 L 36.96569442749023 8.12158203125 M 36.96569442749023 3.814697265625e-06 L 73.93138122558594 47.31608963012695 L -7.62939453125e-06 47.31608963012695 L 36.96569442749023 3.814697265625e-06 Z" stroke="none" fill="#ffaf65"/>
        </g>
        <g id="Polygon_26-2" data-name="Polygon 26" transform="translate(284.707 42.644) rotate(90)" fill="#6e2142">
          <path d="M 68.80577850341797 44.81609344482422 L 5.1256103515625 44.81609344482422 L 36.96569442749023 4.060781002044678 L 68.80577850341797 44.81609344482422 Z" stroke="none"/>
          <path d="M 36.96569442749023 8.12158203125 L 10.25122833251953 42.31608963012695 L 63.68014907836914 42.31608963012695 L 36.96569442749023 8.12158203125 M 36.96569442749023 3.814697265625e-06 L 73.93138122558594 47.31608963012695 L -7.62939453125e-06 47.31608963012695 L 36.96569442749023 3.814697265625e-06 Z" stroke="none" fill="#ffaf65"/>
        </g>
        <g id="Polygon_24-2" data-name="Polygon 24" transform="translate(97.391 116.575) rotate(-90)" fill="#ffd692">
          <path d="M 68.80577850341797 44.81609344482422 L 5.125606536865234 44.81609344482422 L 36.96569061279297 4.060781002044678 L 68.80577850341797 44.81609344482422 Z" stroke="none"/>
          <path d="M 36.96569061279297 8.12158203125 L 10.25123596191406 42.31608963012695 L 63.68014526367188 42.31608963012695 L 36.96569061279297 8.12158203125 M 36.96569061279297 3.814697265625e-06 L 73.93137359619141 47.31608963012695 L 7.62939453125e-06 47.31608963012695 L 36.96569061279297 3.814697265625e-06 Z" stroke="none" fill="#ffaf65"/>
        </g>
        <g id="Polygon_25-2" data-name="Polygon 25" transform="translate(191.707 42.644) rotate(90)" fill="#ffd692">
          <path d="M 68.80577850341797 44.81609344482422 L 5.125606536865234 44.81609344482422 L 36.96569061279297 4.060781002044678 L 68.80577850341797 44.81609344482422 Z" stroke="none"/>
          <path d="M 36.96569061279297 8.12158203125 L 10.25123596191406 42.31608963012695 L 63.68014526367188 42.31608963012695 L 36.96569061279297 8.12158203125 M 36.96569061279297 3.814697265625e-06 L 73.93137359619141 47.31608963012695 L 7.62939453125e-06 47.31608963012695 L 36.96569061279297 3.814697265625e-06 Z" stroke="none" fill="#ffaf65"/>
        </g>
        <g id="Polygon_23-2" data-name="Polygon 23" transform="translate(3.391 116.575) rotate(-90)" fill="#6e2142">
          <path d="M 68.80577850341797 44.81609344482422 L 5.125606536865234 44.81609344482422 L 36.96569061279297 4.060781002044678 L 68.80577850341797 44.81609344482422 Z" stroke="none"/>
          <path d="M 36.96569061279297 8.12158203125 L 10.25123596191406 42.31608963012695 L 63.68014526367188 42.31608963012695 L 36.96569061279297 8.12158203125 M 36.96569061279297 3.814697265625e-06 L 73.93137359619141 47.31608963012695 L 7.62939453125e-06 47.31608963012695 L 36.96569061279297 3.814697265625e-06 Z" stroke="none" fill="#ffaf65"/>
        </g>
        <g id="Polygon_27-2" data-name="Polygon 27" transform="translate(190.391 116.575) rotate(-90)" fill="#6e2142">
          <path d="M 68.80577850341797 44.81609344482422 L 5.125606536865234 44.81609344482422 L 36.96569061279297 4.060781002044678 L 68.80577850341797 44.81609344482422 Z" stroke="none"/>
          <path d="M 36.96569061279297 8.12158203125 L 10.25123596191406 42.31608963012695 L 63.68014526367188 42.31608963012695 L 36.96569061279297 8.12158203125 M 36.96569061279297 3.814697265625e-06 L 73.93137359619141 47.31608963012695 L 7.62939453125e-06 47.31608963012695 L 36.96569061279297 3.814697265625e-06 Z" stroke="none" fill="#ffaf65"/>
        </g>
      </g>
      <g transform="translate(560.609 -42.644)">
        <g id="Polygon_22-3" data-name="Polygon 22" transform="translate(97.707 42.644) rotate(90)" fill="#6e2142">
          <path d="M 68.80577850341797 44.81609344482422 L 5.1256103515625 44.81609344482422 L 36.96569442749023 4.060781002044678 L 68.80577850341797 44.81609344482422 Z" stroke="none"/>
          <path d="M 36.96569442749023 8.12158203125 L 10.25122833251953 42.31608963012695 L 63.68014907836914 42.31608963012695 L 36.96569442749023 8.12158203125 M 36.96569442749023 3.814697265625e-06 L 73.93138122558594 47.31608963012695 L -7.62939453125e-06 47.31608963012695 L 36.96569442749023 3.814697265625e-06 Z" stroke="none" fill="#ffaf65"/>
        </g>
        <g id="Polygon_26-3" data-name="Polygon 26" transform="translate(284.707 42.644) rotate(90)" fill="#6e2142">
          <path d="M 68.80577850341797 44.81609344482422 L 5.1256103515625 44.81609344482422 L 36.96569442749023 4.060781002044678 L 68.80577850341797 44.81609344482422 Z" stroke="none"/>
          <path d="M 36.96569442749023 8.12158203125 L 10.25122833251953 42.31608963012695 L 63.68014907836914 42.31608963012695 L 36.96569442749023 8.12158203125 M 36.96569442749023 3.814697265625e-06 L 73.93138122558594 47.31608963012695 L -7.62939453125e-06 47.31608963012695 L 36.96569442749023 3.814697265625e-06 Z" stroke="none" fill="#ffaf65"/>
        </g>
        <g id="Polygon_24-3" data-name="Polygon 24" transform="translate(97.391 116.575) rotate(-90)" fill="#ffd692">
          <path d="M 68.80577850341797 44.81609344482422 L 5.125606536865234 44.81609344482422 L 36.96569061279297 4.060781002044678 L 68.80577850341797 44.81609344482422 Z" stroke="none"/>
          <path d="M 36.96569061279297 8.12158203125 L 10.25123596191406 42.31608963012695 L 63.68014526367188 42.31608963012695 L 36.96569061279297 8.12158203125 M 36.96569061279297 3.814697265625e-06 L 73.93137359619141 47.31608963012695 L 7.62939453125e-06 47.31608963012695 L 36.96569061279297 3.814697265625e-06 Z" stroke="none" fill="#ffaf65"/>
        </g>
        <g id="Polygon_25-3" data-name="Polygon 25" transform="translate(191.707 42.644) rotate(90)" fill="#ffd692">
          <path d="M 68.80577850341797 44.81609344482422 L 5.125606536865234 44.81609344482422 L 36.96569061279297 4.060781002044678 L 68.80577850341797 44.81609344482422 Z" stroke="none"/>
          <path d="M 36.96569061279297 8.12158203125 L 10.25123596191406 42.31608963012695 L 63.68014526367188 42.31608963012695 L 36.96569061279297 8.12158203125 M 36.96569061279297 3.814697265625e-06 L 73.93137359619141 47.31608963012695 L 7.62939453125e-06 47.31608963012695 L 36.96569061279297 3.814697265625e-06 Z" stroke="none" fill="#ffaf65"/>
        </g>
        <g id="Polygon_23-3" data-name="Polygon 23" transform="translate(3.391 116.575) rotate(-90)" fill="#6e2142">
          <path d="M 68.80577850341797 44.81609344482422 L 5.125606536865234 44.81609344482422 L 36.96569061279297 4.060781002044678 L 68.80577850341797 44.81609344482422 Z" stroke="none"/>
          <path d="M 36.96569061279297 8.12158203125 L 10.25123596191406 42.31608963012695 L 63.68014526367188 42.31608963012695 L 36.96569061279297 8.12158203125 M 36.96569061279297 3.814697265625e-06 L 73.93137359619141 47.31608963012695 L 7.62939453125e-06 47.31608963012695 L 36.96569061279297 3.814697265625e-06 Z" stroke="none" fill="#ffaf65"/>
        </g>
        <g id="Polygon_27-3" data-name="Polygon 27" transform="translate(190.391 116.575) rotate(-90)" fill="#6e2142">
          <path d="M 68.80577850341797 44.81609344482422 L 5.125606536865234 44.81609344482422 L 36.96569061279297 4.060781002044678 L 68.80577850341797 44.81609344482422 Z" stroke="none"/>
          <path d="M 36.96569061279297 8.12158203125 L 10.25123596191406 42.31608963012695 L 63.68014526367188 42.31608963012695 L 36.96569061279297 8.12158203125 M 36.96569061279297 3.814697265625e-06 L 73.93137359619141 47.31608963012695 L 7.62939453125e-06 47.31608963012695 L 36.96569061279297 3.814697265625e-06 Z" stroke="none" fill="#ffaf65"/>
        </g>
      </g>
      <g transform="translate(842.609 -42.644)">
        <g id="Polygon_22-4" data-name="Polygon 22" transform="translate(97.707 42.644) rotate(90)" fill="#6e2142">
          <path d="M 68.80577850341797 44.81609344482422 L 5.1256103515625 44.81609344482422 L 36.96569442749023 4.060781002044678 L 68.80577850341797 44.81609344482422 Z" stroke="none"/>
          <path d="M 36.96569442749023 8.12158203125 L 10.25122833251953 42.31608963012695 L 63.68014907836914 42.31608963012695 L 36.96569442749023 8.12158203125 M 36.96569442749023 3.814697265625e-06 L 73.93138122558594 47.31608963012695 L -7.62939453125e-06 47.31608963012695 L 36.96569442749023 3.814697265625e-06 Z" stroke="none" fill="#ffaf65"/>
        </g>
        <g id="Polygon_26-4" data-name="Polygon 26" transform="translate(284.707 42.644) rotate(90)" fill="#6e2142">
          <path d="M 68.80577850341797 44.81609344482422 L 5.1256103515625 44.81609344482422 L 36.96569442749023 4.060781002044678 L 68.80577850341797 44.81609344482422 Z" stroke="none"/>
          <path d="M 36.96569442749023 8.12158203125 L 10.25122833251953 42.31608963012695 L 63.68014907836914 42.31608963012695 L 36.96569442749023 8.12158203125 M 36.96569442749023 3.814697265625e-06 L 73.93138122558594 47.31608963012695 L -7.62939453125e-06 47.31608963012695 L 36.96569442749023 3.814697265625e-06 Z" stroke="none" fill="#ffaf65"/>
        </g>
        <g id="Polygon_24-4" data-name="Polygon 24" transform="translate(97.391 116.575) rotate(-90)" fill="#ffd692">
          <path d="M 68.80577850341797 44.81609344482422 L 5.125606536865234 44.81609344482422 L 36.96569061279297 4.060781002044678 L 68.80577850341797 44.81609344482422 Z" stroke="none"/>
          <path d="M 36.96569061279297 8.12158203125 L 10.25123596191406 42.31608963012695 L 63.68014526367188 42.31608963012695 L 36.96569061279297 8.12158203125 M 36.96569061279297 3.814697265625e-06 L 73.93137359619141 47.31608963012695 L 7.62939453125e-06 47.31608963012695 L 36.96569061279297 3.814697265625e-06 Z" stroke="none" fill="#ffaf65"/>
        </g>
        <g id="Polygon_25-4" data-name="Polygon 25" transform="translate(191.707 42.644) rotate(90)" fill="#ffd692">
          <path d="M 68.80577850341797 44.81609344482422 L 5.125606536865234 44.81609344482422 L 36.96569061279297 4.060781002044678 L 68.80577850341797 44.81609344482422 Z" stroke="none"/>
          <path d="M 36.96569061279297 8.12158203125 L 10.25123596191406 42.31608963012695 L 63.68014526367188 42.31608963012695 L 36.96569061279297 8.12158203125 M 36.96569061279297 3.814697265625e-06 L 73.93137359619141 47.31608963012695 L 7.62939453125e-06 47.31608963012695 L 36.96569061279297 3.814697265625e-06 Z" stroke="none" fill="#ffaf65"/>
        </g>
        <g id="Polygon_23-4" data-name="Polygon 23" transform="translate(3.391 116.575) rotate(-90)" fill="#6e2142">
          <path d="M 68.80577850341797 44.81609344482422 L 5.125606536865234 44.81609344482422 L 36.96569061279297 4.060781002044678 L 68.80577850341797 44.81609344482422 Z" stroke="none"/>
          <path d="M 36.96569061279297 8.12158203125 L 10.25123596191406 42.31608963012695 L 63.68014526367188 42.31608963012695 L 36.96569061279297 8.12158203125 M 36.96569061279297 3.814697265625e-06 L 73.93137359619141 47.31608963012695 L 7.62939453125e-06 47.31608963012695 L 36.96569061279297 3.814697265625e-06 Z" stroke="none" fill="#ffaf65"/>
        </g>
        <g id="Polygon_27-4" data-name="Polygon 27" transform="translate(190.391 116.575) rotate(-90)" fill="#6e2142">
          <path d="M 68.80577850341797 44.81609344482422 L 5.125606536865234 44.81609344482422 L 36.96569061279297 4.060781002044678 L 68.80577850341797 44.81609344482422 Z" stroke="none"/>
          <path d="M 36.96569061279297 8.12158203125 L 10.25123596191406 42.31608963012695 L 63.68014526367188 42.31608963012695 L 36.96569061279297 8.12158203125 M 36.96569061279297 3.814697265625e-06 L 73.93137359619141 47.31608963012695 L 7.62939453125e-06 47.31608963012695 L 36.96569061279297 3.814697265625e-06 Z" stroke="none" fill="#ffaf65"/>
        </g>
      </g>
      <g transform="translate(1124.609 -42.644)">
        <g id="Polygon_22-5" data-name="Polygon 22" transform="translate(97.707 42.644) rotate(90)" fill="#6e2142">
          <path d="M 68.80577850341797 44.81609344482422 L 5.1256103515625 44.81609344482422 L 36.96569442749023 4.060781002044678 L 68.80577850341797 44.81609344482422 Z" stroke="none"/>
          <path d="M 36.96569442749023 8.12158203125 L 10.25122833251953 42.31608963012695 L 63.68014907836914 42.31608963012695 L 36.96569442749023 8.12158203125 M 36.96569442749023 3.814697265625e-06 L 73.93138122558594 47.31608963012695 L -7.62939453125e-06 47.31608963012695 L 36.96569442749023 3.814697265625e-06 Z" stroke="none" fill="#ffaf65"/>
        </g>
        <g id="Polygon_26-5" data-name="Polygon 26" transform="translate(284.707 42.644) rotate(90)" fill="#6e2142">
          <path d="M 68.80577850341797 44.81609344482422 L 5.1256103515625 44.81609344482422 L 36.96569442749023 4.060781002044678 L 68.80577850341797 44.81609344482422 Z" stroke="none"/>
          <path d="M 36.96569442749023 8.12158203125 L 10.25122833251953 42.31608963012695 L 63.68014907836914 42.31608963012695 L 36.96569442749023 8.12158203125 M 36.96569442749023 3.814697265625e-06 L 73.93138122558594 47.31608963012695 L -7.62939453125e-06 47.31608963012695 L 36.96569442749023 3.814697265625e-06 Z" stroke="none" fill="#ffaf65"/>
        </g>
        <g id="Polygon_24-5" data-name="Polygon 24" transform="translate(97.391 116.575) rotate(-90)" fill="#ffd692">
          <path d="M 68.80577850341797 44.81609344482422 L 5.125606536865234 44.81609344482422 L 36.96569061279297 4.060781002044678 L 68.80577850341797 44.81609344482422 Z" stroke="none"/>
          <path d="M 36.96569061279297 8.12158203125 L 10.25123596191406 42.31608963012695 L 63.68014526367188 42.31608963012695 L 36.96569061279297 8.12158203125 M 36.96569061279297 3.814697265625e-06 L 73.93137359619141 47.31608963012695 L 7.62939453125e-06 47.31608963012695 L 36.96569061279297 3.814697265625e-06 Z" stroke="none" fill="#ffaf65"/>
        </g>
        <g id="Polygon_25-5" data-name="Polygon 25" transform="translate(191.707 42.644) rotate(90)" fill="#ffd692">
          <path d="M 68.80577850341797 44.81609344482422 L 5.125606536865234 44.81609344482422 L 36.96569061279297 4.060781002044678 L 68.80577850341797 44.81609344482422 Z" stroke="none"/>
          <path d="M 36.96569061279297 8.12158203125 L 10.25123596191406 42.31608963012695 L 63.68014526367188 42.31608963012695 L 36.96569061279297 8.12158203125 M 36.96569061279297 3.814697265625e-06 L 73.93137359619141 47.31608963012695 L 7.62939453125e-06 47.31608963012695 L 36.96569061279297 3.814697265625e-06 Z" stroke="none" fill="#ffaf65"/>
        </g>
        <g id="Polygon_23-5" data-name="Polygon 23" transform="translate(3.391 116.575) rotate(-90)" fill="#6e2142">
          <path d="M 68.80577850341797 44.81609344482422 L 5.125606536865234 44.81609344482422 L 36.96569061279297 4.060781002044678 L 68.80577850341797 44.81609344482422 Z" stroke="none"/>
          <path d="M 36.96569061279297 8.12158203125 L 10.25123596191406 42.31608963012695 L 63.68014526367188 42.31608963012695 L 36.96569061279297 8.12158203125 M 36.96569061279297 3.814697265625e-06 L 73.93137359619141 47.31608963012695 L 7.62939453125e-06 47.31608963012695 L 36.96569061279297 3.814697265625e-06 Z" stroke="none" fill="#ffaf65"/>
        </g>
        <g id="Polygon_27-5" data-name="Polygon 27" transform="translate(190.391 116.575) rotate(-90)" fill="#6e2142">
          <path d="M 68.80577850341797 44.81609344482422 L 5.125606536865234 44.81609344482422 L 36.96569061279297 4.060781002044678 L 68.80577850341797 44.81609344482422 Z" stroke="none"/>
          <path d="M 36.96569061279297 8.12158203125 L 10.25123596191406 42.31608963012695 L 63.68014526367188 42.31608963012695 L 36.96569061279297 8.12158203125 M 36.96569061279297 3.814697265625e-06 L 73.93137359619141 47.31608963012695 L 7.62939453125e-06 47.31608963012695 L 36.96569061279297 3.814697265625e-06 Z" stroke="none" fill="#ffaf65"/>
        </g>
      </g>
    </g>
    <g id="Repeat_Grid_2" data-name="Repeat Grid 2" transform="translate(3.008 689.356)" clip-path="url(#clip-path-2)">
      <g transform="translate(-3.008 -707)">
        <g id="Path_2" data-name="Path 2" transform="translate(3.008 794.905) rotate(-90)" fill="#00918e">
          <path d="M 82.77904510498047 53.75898361206055 L 5.125617027282715 53.75898361206055 L 43.95233154296875 4.060790538787842 L 82.77904510498047 53.75898361206055 Z" stroke="none"/>
          <path d="M 43.95233154296875 8.121559143066406 L 10.251220703125 51.25897598266602 L 77.6534423828125 51.25897598266602 L 43.95233154296875 8.121559143066406 M 43.95233154296875 -7.62939453125e-06 L 87.9046630859375 56.25897598266602 L 0 56.25897598266602 L 43.95233154296875 -7.62939453125e-06 Z" stroke="none" fill="#ffaf65"/>
        </g>
        <g id="Path_10" data-name="Path 10" transform="translate(228.044 794.905) rotate(-90)" fill="#00918e">
          <path d="M 82.77904510498047 53.75898361206055 L 5.125617027282715 53.75898361206055 L 43.95233154296875 4.060790538787842 L 82.77904510498047 53.75898361206055 Z" stroke="none"/>
          <path d="M 43.95233154296875 8.121559143066406 L 10.251220703125 51.25897598266602 L 77.6534423828125 51.25897598266602 L 43.95233154296875 8.121559143066406 M 43.95233154296875 -7.62939453125e-06 L 87.9046630859375 56.25897598266602 L 0 56.25897598266602 L 43.95233154296875 -7.62939453125e-06 Z" stroke="none" fill="#ffaf65"/>
        </g>
        <g id="Path_7" data-name="Path 7" transform="translate(59.267 794.905) rotate(-90)" fill="#00918e">
          <path d="M 43.95233154296875 52.19819259643555 L 5.125617027282715 2.499998569488525 L 82.77904510498047 2.499998569488525 L 43.95233154296875 52.19819259643555 Z" stroke="none"/>
          <path d="M 43.95233154296875 48.13742446899414 L 77.6534423828125 5.000008583068848 L 10.25122165679932 5.000008583068848 L 43.95233154296875 48.13742446899414 M 43.95233154296875 56.25899124145508 L -1.790364535736444e-06 8.472697118122596e-06 L 87.9046630859375 8.472697118122596e-06 L 43.95233154296875 56.25899124145508 Z" stroke="none" fill="#ffaf65"/>
        </g>
        <g id="Path_11" data-name="Path 11" transform="translate(284.303 794.905) rotate(-90)" fill="#00918e">
          <path d="M 43.95233154296875 52.19819259643555 L 5.125617027282715 2.499998569488525 L 82.77904510498047 2.499998569488525 L 43.95233154296875 52.19819259643555 Z" stroke="none"/>
          <path d="M 43.95233154296875 48.13742446899414 L 77.6534423828125 5.000008583068848 L 10.25122165679932 5.000008583068848 L 43.95233154296875 48.13742446899414 M 43.95233154296875 56.25899124145508 L -1.790364535736444e-06 8.472697118122596e-06 L 87.9046630859375 8.472697118122596e-06 L 43.95233154296875 56.25899124145508 Z" stroke="none" fill="#ffaf65"/>
        </g>
        <g id="Path_8" data-name="Path 8" transform="translate(115.526 794.905) rotate(-90)" fill="#eb8242">
          <path d="M 82.77904510498047 53.75898361206055 L 5.125617027282715 53.75898361206055 L 43.95233154296875 4.060790538787842 L 82.77904510498047 53.75898361206055 Z" stroke="none"/>
          <path d="M 43.95233154296875 8.121559143066406 L 10.251220703125 51.25897598266602 L 77.6534423828125 51.25897598266602 L 43.95233154296875 8.121559143066406 M 43.95233154296875 -7.62939453125e-06 L 87.9046630859375 56.25897598266602 L 0 56.25897598266602 L 43.95233154296875 -7.62939453125e-06 Z" stroke="none" fill="#ffaf65"/>
        </g>
        <g id="Path_9" data-name="Path 9" transform="translate(171.785 794.905) rotate(-90)" fill="#eb8242">
          <path d="M 43.95233154296875 52.19818878173828 L 5.125617504119873 2.500006198883057 L 82.77904510498047 2.500006198883057 L 43.95233154296875 52.19818878173828 Z" stroke="none"/>
          <path d="M 43.95233154296875 48.13740539550781 L 77.6534423828125 5.000002861022949 L 10.25122356414795 5.000002861022949 L 43.95233154296875 48.13740539550781 M 43.95233154296875 56.25896835327148 L -1.790364535736444e-06 2.750650992311421e-06 L 87.9046630859375 2.750650992311421e-06 L 43.95233154296875 56.25896835327148 Z" stroke="none" fill="#ffaf65"/>
        </g>
      </g>
      <g transform="translate(334.992 -707)">
        <g id="Path_2-2" data-name="Path 2" transform="translate(3.008 794.905) rotate(-90)" fill="#00918e">
          <path d="M 82.77904510498047 53.75898361206055 L 5.125617027282715 53.75898361206055 L 43.95233154296875 4.060790538787842 L 82.77904510498047 53.75898361206055 Z" stroke="none"/>
          <path d="M 43.95233154296875 8.121559143066406 L 10.251220703125 51.25897598266602 L 77.6534423828125 51.25897598266602 L 43.95233154296875 8.121559143066406 M 43.95233154296875 -7.62939453125e-06 L 87.9046630859375 56.25897598266602 L 0 56.25897598266602 L 43.95233154296875 -7.62939453125e-06 Z" stroke="none" fill="#ffaf65"/>
        </g>
        <g id="Path_10-2" data-name="Path 10" transform="translate(228.044 794.905) rotate(-90)" fill="#00918e">
          <path d="M 82.77904510498047 53.75898361206055 L 5.125617027282715 53.75898361206055 L 43.95233154296875 4.060790538787842 L 82.77904510498047 53.75898361206055 Z" stroke="none"/>
          <path d="M 43.95233154296875 8.121559143066406 L 10.251220703125 51.25897598266602 L 77.6534423828125 51.25897598266602 L 43.95233154296875 8.121559143066406 M 43.95233154296875 -7.62939453125e-06 L 87.9046630859375 56.25897598266602 L 0 56.25897598266602 L 43.95233154296875 -7.62939453125e-06 Z" stroke="none" fill="#ffaf65"/>
        </g>
        <g id="Path_7-2" data-name="Path 7" transform="translate(59.267 794.905) rotate(-90)" fill="#00918e">
          <path d="M 43.95233154296875 52.19819259643555 L 5.125617027282715 2.499998569488525 L 82.77904510498047 2.499998569488525 L 43.95233154296875 52.19819259643555 Z" stroke="none"/>
          <path d="M 43.95233154296875 48.13742446899414 L 77.6534423828125 5.000008583068848 L 10.25122165679932 5.000008583068848 L 43.95233154296875 48.13742446899414 M 43.95233154296875 56.25899124145508 L -1.790364535736444e-06 8.472697118122596e-06 L 87.9046630859375 8.472697118122596e-06 L 43.95233154296875 56.25899124145508 Z" stroke="none" fill="#ffaf65"/>
        </g>
        <g id="Path_11-2" data-name="Path 11" transform="translate(284.303 794.905) rotate(-90)" fill="#00918e">
          <path d="M 43.95233154296875 52.19819259643555 L 5.125617027282715 2.499998569488525 L 82.77904510498047 2.499998569488525 L 43.95233154296875 52.19819259643555 Z" stroke="none"/>
          <path d="M 43.95233154296875 48.13742446899414 L 77.6534423828125 5.000008583068848 L 10.25122165679932 5.000008583068848 L 43.95233154296875 48.13742446899414 M 43.95233154296875 56.25899124145508 L -1.790364535736444e-06 8.472697118122596e-06 L 87.9046630859375 8.472697118122596e-06 L 43.95233154296875 56.25899124145508 Z" stroke="none" fill="#ffaf65"/>
        </g>
        <g id="Path_8-2" data-name="Path 8" transform="translate(115.526 794.905) rotate(-90)" fill="#eb8242">
          <path d="M 82.77904510498047 53.75898361206055 L 5.125617027282715 53.75898361206055 L 43.95233154296875 4.060790538787842 L 82.77904510498047 53.75898361206055 Z" stroke="none"/>
          <path d="M 43.95233154296875 8.121559143066406 L 10.251220703125 51.25897598266602 L 77.6534423828125 51.25897598266602 L 43.95233154296875 8.121559143066406 M 43.95233154296875 -7.62939453125e-06 L 87.9046630859375 56.25897598266602 L 0 56.25897598266602 L 43.95233154296875 -7.62939453125e-06 Z" stroke="none" fill="#ffaf65"/>
        </g>
        <g id="Path_9-2" data-name="Path 9" transform="translate(171.785 794.905) rotate(-90)" fill="#eb8242">
          <path d="M 43.95233154296875 52.19818878173828 L 5.125617504119873 2.500006198883057 L 82.77904510498047 2.500006198883057 L 43.95233154296875 52.19818878173828 Z" stroke="none"/>
          <path d="M 43.95233154296875 48.13740539550781 L 77.6534423828125 5.000002861022949 L 10.25122356414795 5.000002861022949 L 43.95233154296875 48.13740539550781 M 43.95233154296875 56.25896835327148 L -1.790364535736444e-06 2.750650992311421e-06 L 87.9046630859375 2.750650992311421e-06 L 43.95233154296875 56.25896835327148 Z" stroke="none" fill="#ffaf65"/>
        </g>
      </g>
      <g transform="translate(672.992 -707)">
        <g id="Path_2-3" data-name="Path 2" transform="translate(3.008 794.905) rotate(-90)" fill="#00918e">
          <path d="M 82.77904510498047 53.75898361206055 L 5.125617027282715 53.75898361206055 L 43.95233154296875 4.060790538787842 L 82.77904510498047 53.75898361206055 Z" stroke="none"/>
          <path d="M 43.95233154296875 8.121559143066406 L 10.251220703125 51.25897598266602 L 77.6534423828125 51.25897598266602 L 43.95233154296875 8.121559143066406 M 43.95233154296875 -7.62939453125e-06 L 87.9046630859375 56.25897598266602 L 0 56.25897598266602 L 43.95233154296875 -7.62939453125e-06 Z" stroke="none" fill="#ffaf65"/>
        </g>
        <g id="Path_10-3" data-name="Path 10" transform="translate(228.044 794.905) rotate(-90)" fill="#00918e">
          <path d="M 82.77904510498047 53.75898361206055 L 5.125617027282715 53.75898361206055 L 43.95233154296875 4.060790538787842 L 82.77904510498047 53.75898361206055 Z" stroke="none"/>
          <path d="M 43.95233154296875 8.121559143066406 L 10.251220703125 51.25897598266602 L 77.6534423828125 51.25897598266602 L 43.95233154296875 8.121559143066406 M 43.95233154296875 -7.62939453125e-06 L 87.9046630859375 56.25897598266602 L 0 56.25897598266602 L 43.95233154296875 -7.62939453125e-06 Z" stroke="none" fill="#ffaf65"/>
        </g>
        <g id="Path_7-3" data-name="Path 7" transform="translate(59.267 794.905) rotate(-90)" fill="#00918e">
          <path d="M 43.95233154296875 52.19819259643555 L 5.125617027282715 2.499998569488525 L 82.77904510498047 2.499998569488525 L 43.95233154296875 52.19819259643555 Z" stroke="none"/>
          <path d="M 43.95233154296875 48.13742446899414 L 77.6534423828125 5.000008583068848 L 10.25122165679932 5.000008583068848 L 43.95233154296875 48.13742446899414 M 43.95233154296875 56.25899124145508 L -1.790364535736444e-06 8.472697118122596e-06 L 87.9046630859375 8.472697118122596e-06 L 43.95233154296875 56.25899124145508 Z" stroke="none" fill="#ffaf65"/>
        </g>
        <g id="Path_11-3" data-name="Path 11" transform="translate(284.303 794.905) rotate(-90)" fill="#00918e">
          <path d="M 43.95233154296875 52.19819259643555 L 5.125617027282715 2.499998569488525 L 82.77904510498047 2.499998569488525 L 43.95233154296875 52.19819259643555 Z" stroke="none"/>
          <path d="M 43.95233154296875 48.13742446899414 L 77.6534423828125 5.000008583068848 L 10.25122165679932 5.000008583068848 L 43.95233154296875 48.13742446899414 M 43.95233154296875 56.25899124145508 L -1.790364535736444e-06 8.472697118122596e-06 L 87.9046630859375 8.472697118122596e-06 L 43.95233154296875 56.25899124145508 Z" stroke="none" fill="#ffaf65"/>
        </g>
        <g id="Path_8-3" data-name="Path 8" transform="translate(115.526 794.905) rotate(-90)" fill="#eb8242">
          <path d="M 82.77904510498047 53.75898361206055 L 5.125617027282715 53.75898361206055 L 43.95233154296875 4.060790538787842 L 82.77904510498047 53.75898361206055 Z" stroke="none"/>
          <path d="M 43.95233154296875 8.121559143066406 L 10.251220703125 51.25897598266602 L 77.6534423828125 51.25897598266602 L 43.95233154296875 8.121559143066406 M 43.95233154296875 -7.62939453125e-06 L 87.9046630859375 56.25897598266602 L 0 56.25897598266602 L 43.95233154296875 -7.62939453125e-06 Z" stroke="none" fill="#ffaf65"/>
        </g>
        <g id="Path_9-3" data-name="Path 9" transform="translate(171.785 794.905) rotate(-90)" fill="#eb8242">
          <path d="M 43.95233154296875 52.19818878173828 L 5.125617504119873 2.500006198883057 L 82.77904510498047 2.500006198883057 L 43.95233154296875 52.19818878173828 Z" stroke="none"/>
          <path d="M 43.95233154296875 48.13740539550781 L 77.6534423828125 5.000002861022949 L 10.25122356414795 5.000002861022949 L 43.95233154296875 48.13740539550781 M 43.95233154296875 56.25896835327148 L -1.790364535736444e-06 2.750650992311421e-06 L 87.9046630859375 2.750650992311421e-06 L 43.95233154296875 56.25896835327148 Z" stroke="none" fill="#ffaf65"/>
        </g>
      </g>
      <g transform="translate(1010.992 -707)">
        <g id="Path_2-4" data-name="Path 2" transform="translate(3.008 794.905) rotate(-90)" fill="#00918e">
          <path d="M 82.77904510498047 53.75898361206055 L 5.125617027282715 53.75898361206055 L 43.95233154296875 4.060790538787842 L 82.77904510498047 53.75898361206055 Z" stroke="none"/>
          <path d="M 43.95233154296875 8.121559143066406 L 10.251220703125 51.25897598266602 L 77.6534423828125 51.25897598266602 L 43.95233154296875 8.121559143066406 M 43.95233154296875 -7.62939453125e-06 L 87.9046630859375 56.25897598266602 L 0 56.25897598266602 L 43.95233154296875 -7.62939453125e-06 Z" stroke="none" fill="#ffaf65"/>
        </g>
        <g id="Path_10-4" data-name="Path 10" transform="translate(228.044 794.905) rotate(-90)" fill="#00918e">
          <path d="M 82.77904510498047 53.75898361206055 L 5.125617027282715 53.75898361206055 L 43.95233154296875 4.060790538787842 L 82.77904510498047 53.75898361206055 Z" stroke="none"/>
          <path d="M 43.95233154296875 8.121559143066406 L 10.251220703125 51.25897598266602 L 77.6534423828125 51.25897598266602 L 43.95233154296875 8.121559143066406 M 43.95233154296875 -7.62939453125e-06 L 87.9046630859375 56.25897598266602 L 0 56.25897598266602 L 43.95233154296875 -7.62939453125e-06 Z" stroke="none" fill="#ffaf65"/>
        </g>
        <g id="Path_7-4" data-name="Path 7" transform="translate(59.267 794.905) rotate(-90)" fill="#00918e">
          <path d="M 43.95233154296875 52.19819259643555 L 5.125617027282715 2.499998569488525 L 82.77904510498047 2.499998569488525 L 43.95233154296875 52.19819259643555 Z" stroke="none"/>
          <path d="M 43.95233154296875 48.13742446899414 L 77.6534423828125 5.000008583068848 L 10.25122165679932 5.000008583068848 L 43.95233154296875 48.13742446899414 M 43.95233154296875 56.25899124145508 L -1.790364535736444e-06 8.472697118122596e-06 L 87.9046630859375 8.472697118122596e-06 L 43.95233154296875 56.25899124145508 Z" stroke="none" fill="#ffaf65"/>
        </g>
        <g id="Path_11-4" data-name="Path 11" transform="translate(284.303 794.905) rotate(-90)" fill="#00918e">
          <path d="M 43.95233154296875 52.19819259643555 L 5.125617027282715 2.499998569488525 L 82.77904510498047 2.499998569488525 L 43.95233154296875 52.19819259643555 Z" stroke="none"/>
          <path d="M 43.95233154296875 48.13742446899414 L 77.6534423828125 5.000008583068848 L 10.25122165679932 5.000008583068848 L 43.95233154296875 48.13742446899414 M 43.95233154296875 56.25899124145508 L -1.790364535736444e-06 8.472697118122596e-06 L 87.9046630859375 8.472697118122596e-06 L 43.95233154296875 56.25899124145508 Z" stroke="none" fill="#ffaf65"/>
        </g>
        <g id="Path_8-4" data-name="Path 8" transform="translate(115.526 794.905) rotate(-90)" fill="#eb8242">
          <path d="M 82.77904510498047 53.75898361206055 L 5.125617027282715 53.75898361206055 L 43.95233154296875 4.060790538787842 L 82.77904510498047 53.75898361206055 Z" stroke="none"/>
          <path d="M 43.95233154296875 8.121559143066406 L 10.251220703125 51.25897598266602 L 77.6534423828125 51.25897598266602 L 43.95233154296875 8.121559143066406 M 43.95233154296875 -7.62939453125e-06 L 87.9046630859375 56.25897598266602 L 0 56.25897598266602 L 43.95233154296875 -7.62939453125e-06 Z" stroke="none" fill="#ffaf65"/>
        </g>
        <g id="Path_9-4" data-name="Path 9" transform="translate(171.785 794.905) rotate(-90)" fill="#eb8242">
          <path d="M 43.95233154296875 52.19818878173828 L 5.125617504119873 2.500006198883057 L 82.77904510498047 2.500006198883057 L 43.95233154296875 52.19818878173828 Z" stroke="none"/>
          <path d="M 43.95233154296875 48.13740539550781 L 77.6534423828125 5.000002861022949 L 10.25122356414795 5.000002861022949 L 43.95233154296875 48.13740539550781 M 43.95233154296875 56.25896835327148 L -1.790364535736444e-06 2.750650992311421e-06 L 87.9046630859375 2.750650992311421e-06 L 43.95233154296875 56.25896835327148 Z" stroke="none" fill="#ffaf65"/>
        </g>
      </g>
    </g>
  </g>
</svg>
