<svg xmlns="http://www.w3.org/2000/svg" width="2231.485" height="2616.964" viewBox="0 0 2231.485 2616.964">
  <path id="wave_6_" data-name="wave (6)" d="M0,665.655,43.2,715.95c43.041,48.414,129.931,151.824,215.688,125.031,86.243-24.912,173.133-175.326,258.891-225.621,86.243-48.414,173.133-1.41,258.891-75.207,86.243-76.617,173.133-274.035,258.891-225.621,86.243,50.295,173.133,351.122,258.891,501.536,86.243,150.414,173.133,150.414,258.891,100.119,86.243-48.414,173.133-151.824,258.891-350.652C1898.477,364.828,1985.367,64,2071.125,64c86.243,0,173.133,300.828,215.2,451.242l43.688,150.414v601.656H0Z" transform="translate(1145.188 2649.927) rotate(-121)" fill="#ffaf65"/>
</svg>
