<svg xmlns="http://www.w3.org/2000/svg" width="589.318" height="642.024" viewBox="0 0 589.318 642.024">
  <path id="wave_6_" data-name="wave (6)" d="M0,192l14,10.7C27.949,213,56.107,235,83.9,229.3c27.949-5.3,56.107-37.3,83.9-48,27.949-10.3,56.107-.3,83.9-16,27.949-16.3,56.107-58.3,83.9-48C363.542,128,391.7,192,419.492,224c27.949,32,56.107,32,83.9,21.3,27.949-10.3-60.512,112.784-32.721,70.484,27.949-42.7-12.081,12.274,15.71,12.274,27.949,0,31.369-31.127,45,.873L493.3,377.669l-56.481,13.818,115.67,8.822c-13.948,0-1.015,1.1-28.806,1.1-27.949,0,91.393-81.406,63.6-81.406H0Z" transform="translate(273.006 713.253) rotate(-128)" fill="#ffd692"/>
</svg>
