<?xml version="1.0" standalone="no"?><svg xmlns="http://www.w3.org/2000/svg" viewBox="0 0 1440 320"><path fill="#ffd700" fill-opacity="1" d="M0,128L30,138.7C60,149,120,171,180,165.3C240,160,300,128,360,128C420,128,480,160,540,181.3C600,203,660,213,720,218.7C780,224,840,224,900,213.3C960,203,1020,181,1080,165.3C1140,149,1200,139,1260,112C1320,85,1380,43,1410,21.3L1440,0L1440,320L1410,320C1380,320,1320,320,1260,320C1200,320,1140,320,1080,320C1020,320,960,320,900,320C840,320,780,320,720,320C660,320,600,320,540,320C480,320,420,320,360,320C300,320,240,320,180,320C120,320,60,320,30,320L0,320Z"></path></svg>